<mxfile host="app.diagrams.net" modified="2023-05-15T17:39:10.801Z" agent="Mozilla/5.0 (Windows NT 10.0; Win64; x64) AppleWebKit/537.36 (KHTML, like Gecko) Chrome/113.0.0.0 Safari/537.36" etag="20yRzT5C_2CDZ8UaH9Si" version="21.3.2" type="device">
  <diagram name="Page-1" id="zHHDlsqNe0VowA_iqMOM">
    <mxGraphModel dx="1050" dy="523" grid="1" gridSize="10" guides="1" tooltips="1" connect="1" arrows="1" fold="1" page="1" pageScale="1" pageWidth="827" pageHeight="1169" math="0" shadow="0">
      <root>
        <mxCell id="0" />
        <mxCell id="1" parent="0" />
        <mxCell id="Eh4tGiYGEYvk4l9yLsGW-14" style="edgeStyle=orthogonalEdgeStyle;rounded=0;orthogonalLoop=1;jettySize=auto;html=1;entryX=0;entryY=0.5;entryDx=0;entryDy=0;" edge="1" parent="1" source="Eh4tGiYGEYvk4l9yLsGW-1" target="Eh4tGiYGEYvk4l9yLsGW-8">
          <mxGeometry relative="1" as="geometry">
            <Array as="points">
              <mxPoint x="610" y="300" />
              <mxPoint x="610" y="300" />
            </Array>
          </mxGeometry>
        </mxCell>
        <mxCell id="Eh4tGiYGEYvk4l9yLsGW-1" value="" style="rounded=1;whiteSpace=wrap;html=1;" vertex="1" parent="1">
          <mxGeometry x="445" y="250" width="140" height="280" as="geometry" />
        </mxCell>
        <mxCell id="Eh4tGiYGEYvk4l9yLsGW-16" style="edgeStyle=orthogonalEdgeStyle;rounded=0;orthogonalLoop=1;jettySize=auto;html=1;exitX=0.5;exitY=1;exitDx=0;exitDy=0;entryX=0.5;entryY=0;entryDx=0;entryDy=0;" edge="1" parent="1" source="Eh4tGiYGEYvk4l9yLsGW-2" target="Eh4tGiYGEYvk4l9yLsGW-5">
          <mxGeometry relative="1" as="geometry" />
        </mxCell>
        <mxCell id="Eh4tGiYGEYvk4l9yLsGW-2" value="&lt;b&gt;ARDUINO&lt;/b&gt;" style="whiteSpace=wrap;html=1;aspect=fixed;" vertex="1" parent="1">
          <mxGeometry x="485" y="270" width="60" height="60" as="geometry" />
        </mxCell>
        <mxCell id="Eh4tGiYGEYvk4l9yLsGW-17" style="edgeStyle=orthogonalEdgeStyle;rounded=0;orthogonalLoop=1;jettySize=auto;html=1;exitX=0.5;exitY=1;exitDx=0;exitDy=0;entryX=0.5;entryY=0;entryDx=0;entryDy=0;" edge="1" parent="1" source="Eh4tGiYGEYvk4l9yLsGW-5" target="Eh4tGiYGEYvk4l9yLsGW-7">
          <mxGeometry relative="1" as="geometry" />
        </mxCell>
        <mxCell id="Eh4tGiYGEYvk4l9yLsGW-5" value="&lt;b&gt;L298&lt;/b&gt;" style="whiteSpace=wrap;html=1;aspect=fixed;" vertex="1" parent="1">
          <mxGeometry x="485" y="360" width="60" height="60" as="geometry" />
        </mxCell>
        <mxCell id="Eh4tGiYGEYvk4l9yLsGW-15" style="edgeStyle=orthogonalEdgeStyle;rounded=0;orthogonalLoop=1;jettySize=auto;html=1;entryX=0;entryY=0.5;entryDx=0;entryDy=0;" edge="1" parent="1" source="Eh4tGiYGEYvk4l9yLsGW-7" target="Eh4tGiYGEYvk4l9yLsGW-9">
          <mxGeometry relative="1" as="geometry" />
        </mxCell>
        <mxCell id="Eh4tGiYGEYvk4l9yLsGW-7" value="&lt;b&gt;ĐỘNG CƠ&lt;br&gt;GA25&lt;/b&gt;" style="whiteSpace=wrap;html=1;aspect=fixed;" vertex="1" parent="1">
          <mxGeometry x="480" y="440" width="70" height="70" as="geometry" />
        </mxCell>
        <mxCell id="Eh4tGiYGEYvk4l9yLsGW-21" style="edgeStyle=orthogonalEdgeStyle;rounded=0;orthogonalLoop=1;jettySize=auto;html=1;entryX=0.5;entryY=0;entryDx=0;entryDy=0;" edge="1" parent="1" source="Eh4tGiYGEYvk4l9yLsGW-8" target="Eh4tGiYGEYvk4l9yLsGW-11">
          <mxGeometry relative="1" as="geometry">
            <Array as="points">
              <mxPoint x="710" y="200" />
              <mxPoint x="215" y="200" />
            </Array>
          </mxGeometry>
        </mxCell>
        <mxCell id="Eh4tGiYGEYvk4l9yLsGW-8" value="&lt;b&gt;GÓC QUAY&lt;/b&gt;" style="ellipse;whiteSpace=wrap;html=1;" vertex="1" parent="1">
          <mxGeometry x="670" y="275" width="80" height="50" as="geometry" />
        </mxCell>
        <mxCell id="Eh4tGiYGEYvk4l9yLsGW-28" style="edgeStyle=orthogonalEdgeStyle;rounded=0;orthogonalLoop=1;jettySize=auto;html=1;entryX=0.5;entryY=1;entryDx=0;entryDy=0;" edge="1" parent="1" source="Eh4tGiYGEYvk4l9yLsGW-9" target="Eh4tGiYGEYvk4l9yLsGW-26">
          <mxGeometry relative="1" as="geometry">
            <mxPoint x="360" y="520" as="targetPoint" />
            <Array as="points">
              <mxPoint x="710" y="590" />
              <mxPoint x="245" y="590" />
            </Array>
          </mxGeometry>
        </mxCell>
        <mxCell id="Eh4tGiYGEYvk4l9yLsGW-9" value="&lt;b&gt;VẬN TỐC THAY ĐỔI&lt;/b&gt;" style="ellipse;whiteSpace=wrap;html=1;" vertex="1" parent="1">
          <mxGeometry x="670" y="445" width="80" height="60" as="geometry" />
        </mxCell>
        <mxCell id="Eh4tGiYGEYvk4l9yLsGW-12" value="" style="edgeStyle=orthogonalEdgeStyle;rounded=0;orthogonalLoop=1;jettySize=auto;html=1;" edge="1" parent="1" source="Eh4tGiYGEYvk4l9yLsGW-10" target="Eh4tGiYGEYvk4l9yLsGW-11">
          <mxGeometry relative="1" as="geometry" />
        </mxCell>
        <mxCell id="Eh4tGiYGEYvk4l9yLsGW-10" value="&lt;b&gt;SETPOINT&lt;/b&gt;" style="ellipse;whiteSpace=wrap;html=1;" vertex="1" parent="1">
          <mxGeometry x="60" y="275" width="70" height="50" as="geometry" />
        </mxCell>
        <mxCell id="Eh4tGiYGEYvk4l9yLsGW-19" value="" style="edgeStyle=orthogonalEdgeStyle;rounded=0;orthogonalLoop=1;jettySize=auto;html=1;" edge="1" parent="1" source="Eh4tGiYGEYvk4l9yLsGW-11" target="Eh4tGiYGEYvk4l9yLsGW-18">
          <mxGeometry relative="1" as="geometry" />
        </mxCell>
        <mxCell id="Eh4tGiYGEYvk4l9yLsGW-11" value="&lt;b&gt;ERROR&lt;/b&gt;" style="ellipse;whiteSpace=wrap;html=1;" vertex="1" parent="1">
          <mxGeometry x="190" y="275" width="50" height="50" as="geometry" />
        </mxCell>
        <mxCell id="Eh4tGiYGEYvk4l9yLsGW-20" value="" style="edgeStyle=orthogonalEdgeStyle;rounded=0;orthogonalLoop=1;jettySize=auto;html=1;" edge="1" parent="1" source="Eh4tGiYGEYvk4l9yLsGW-18" target="Eh4tGiYGEYvk4l9yLsGW-2">
          <mxGeometry relative="1" as="geometry">
            <Array as="points">
              <mxPoint x="420" y="300" />
              <mxPoint x="420" y="300" />
            </Array>
          </mxGeometry>
        </mxCell>
        <mxCell id="Eh4tGiYGEYvk4l9yLsGW-18" value="&lt;b&gt;PID&lt;/b&gt;" style="whiteSpace=wrap;html=1;aspect=fixed;" vertex="1" parent="1">
          <mxGeometry x="310" y="270" width="60" height="60" as="geometry" />
        </mxCell>
        <mxCell id="Eh4tGiYGEYvk4l9yLsGW-22" value="&lt;b&gt;MPU6050&lt;/b&gt;" style="whiteSpace=wrap;html=1;aspect=fixed;" vertex="1" parent="1">
          <mxGeometry x="420" y="170" width="60" height="60" as="geometry" />
        </mxCell>
        <mxCell id="Eh4tGiYGEYvk4l9yLsGW-23" value="&lt;font style=&quot;font-size: 29px;&quot;&gt;&lt;b&gt;-&lt;/b&gt;&lt;/font&gt;" style="text;html=1;align=center;verticalAlign=middle;resizable=0;points=[];autosize=1;strokeColor=none;fillColor=none;" vertex="1" parent="1">
          <mxGeometry x="210" y="238" width="30" height="50" as="geometry" />
        </mxCell>
        <mxCell id="Eh4tGiYGEYvk4l9yLsGW-24" value="&lt;font style=&quot;font-size: 29px;&quot;&gt;&lt;b&gt;+&lt;/b&gt;&lt;/font&gt;" style="text;html=1;align=center;verticalAlign=middle;resizable=0;points=[];autosize=1;strokeColor=none;fillColor=none;" vertex="1" parent="1">
          <mxGeometry x="160" y="260" width="40" height="50" as="geometry" />
        </mxCell>
        <mxCell id="Eh4tGiYGEYvk4l9yLsGW-27" style="edgeStyle=orthogonalEdgeStyle;rounded=0;orthogonalLoop=1;jettySize=auto;html=1;entryX=0.007;entryY=0.804;entryDx=0;entryDy=0;entryPerimeter=0;" edge="1" parent="1" source="Eh4tGiYGEYvk4l9yLsGW-26" target="Eh4tGiYGEYvk4l9yLsGW-1">
          <mxGeometry relative="1" as="geometry">
            <Array as="points">
              <mxPoint x="363" y="475" />
              <mxPoint x="363" y="475" />
            </Array>
          </mxGeometry>
        </mxCell>
        <mxCell id="Eh4tGiYGEYvk4l9yLsGW-26" value="&lt;b&gt;LỰC TÁC ĐỘNG&lt;/b&gt;" style="ellipse;whiteSpace=wrap;html=1;" vertex="1" parent="1">
          <mxGeometry x="210" y="450" width="70" height="50" as="geometry" />
        </mxCell>
      </root>
    </mxGraphModel>
  </diagram>
</mxfile>
